<svg width="54" height="54" viewBox="0 0 54 54" fill="none" xmlns="http://www.w3.org/2000/svg">
<g clip-path="url(#clip0_29_13)">
<path d="M24.7213 20.2003L31.9742 42.1465M24.7213 20.2003L23.6055 16.824C23.3848 16.1562 23.3671 15.438 23.5546 14.7601C23.7421 14.0823 24.1264 13.4752 24.6589 13.0158C25.1914 12.5564 25.8481 12.2652 26.5461 12.179C27.2441 12.0928 27.952 12.2156 28.5803 12.5317C29.2085 12.8478 29.7289 13.3432 30.0756 13.9551C30.4223 14.5669 30.5798 15.2679 30.5282 15.9693C30.4765 16.6707 30.218 17.341 29.7854 17.8955C29.3528 18.45 28.7654 18.8638 28.0977 19.0845L24.7213 20.2003ZM24.7213 20.2003L23.3265 15.9799C23.0507 15.1452 22.5335 14.411 21.8404 13.8702C21.1473 13.3294 20.3093 13.0063 19.4326 12.9417C18.5558 12.8772 17.6796 13.074 16.9148 13.5074C16.1499 13.9408 15.5307 14.5913 15.1356 15.3766C14.7404 16.1619 14.587 17.0468 14.6947 17.9193C14.8024 18.7918 15.1664 19.6127 15.7407 20.2784C16.315 20.944 17.0738 21.4243 17.9211 21.6587C18.7684 21.8931 19.6662 21.8709 20.5009 21.5951L24.7213 20.2003ZM15.1358 30.8584L38.7702 23.0476M15.1358 30.8584C14.2403 31.1543 13.264 31.0824 12.4215 30.6585C11.5791 30.2345 10.9395 29.4933 10.6436 28.5979C10.3477 27.7024 10.4196 26.7261 10.8435 25.8836C11.2674 25.0412 12.0087 24.4016 12.9041 24.1057L36.5385 16.2949C37.434 15.999 38.4103 16.0709 39.2528 16.4948C40.0952 16.9187 40.7347 17.66 41.0307 18.5554C41.3266 19.4509 41.2547 20.4272 40.8308 21.2697C40.4068 22.1121 39.6656 22.7517 38.7702 23.0476M15.1358 30.8584L19.0412 42.6756C19.3371 43.571 19.9766 44.3123 20.8191 44.7362C21.6615 45.1601 22.6379 45.232 23.5333 44.9361L40.415 39.357C41.3105 39.061 42.0517 38.4215 42.4757 37.579C42.8996 36.7366 42.9715 35.7602 42.6756 34.8648L38.7702 23.0476" stroke="#94C11F" stroke-opacity="0.43" stroke-width="4" stroke-linecap="round" stroke-linejoin="round"/>
</g>
<defs>
<clipPath id="clip0_29_13">
<rect width="42.6713" height="42.6713" fill="white" transform="translate(0 13.3899) rotate(-18.2879)"/>
</clipPath>
</defs>
</svg>
