<svg width="21" height="21" viewBox="0 0 21 21" fill="none" xmlns="http://www.w3.org/2000/svg">
<path d="M10.5 7V18.375M10.5 7V5.25C10.5 4.90388 10.6026 4.56554 10.7949 4.27775C10.9872 3.98997 11.2605 3.76566 11.5803 3.63321C11.9001 3.50076 12.2519 3.4661 12.5914 3.53363C12.9309 3.60115 13.2427 3.76782 13.4874 4.01256C13.7322 4.25731 13.8989 4.56913 13.9664 4.90859C14.0339 5.24806 13.9992 5.59993 13.8668 5.9197C13.7343 6.23947 13.51 6.51278 13.2222 6.70507C12.9345 6.89736 12.5961 7 12.25 7H10.5ZM10.5 7V4.8125C10.5 4.37985 10.3717 3.95692 10.1313 3.59719C9.89097 3.23746 9.54933 2.95708 9.14962 2.79151C8.74991 2.62595 8.31007 2.58263 7.88574 2.66703C7.46141 2.75144 7.07163 2.95978 6.7657 3.2657C6.45978 3.57163 6.25144 3.96141 6.16703 4.38574C6.08263 4.81007 6.12595 5.24991 6.29151 5.64962C6.45708 6.04933 6.73746 6.39097 7.09719 6.63134C7.45692 6.87171 7.87985 7 8.3125 7H10.5ZM4.375 10.5H16.625M4.375 10.5C3.91087 10.5 3.46575 10.3156 3.13756 9.98744C2.80937 9.65925 2.625 9.21413 2.625 8.75C2.625 8.28587 2.80937 7.84075 3.13756 7.51256C3.46575 7.18438 3.91087 7 4.375 7H16.625C17.0891 7 17.5342 7.18438 17.8624 7.51256C18.1906 7.84075 18.375 8.28587 18.375 8.75C18.375 9.21413 18.1906 9.65925 17.8624 9.98744C17.5342 10.3156 17.0891 10.5 16.625 10.5M4.375 10.5V16.625C4.375 17.0891 4.55937 17.5342 4.88756 17.8624C5.21575 18.1906 5.66087 18.375 6.125 18.375H14.875C15.3391 18.375 15.7842 18.1906 16.1124 17.8624C16.4406 17.5342 16.625 17.0891 16.625 16.625V10.5" stroke="#94C11F" stroke-width="2" stroke-linecap="round" stroke-linejoin="round"/>
</svg>
